<?xml version="1.0" encoding="UTF-8"?>
<svg xmlns="http://www.w3.org/2000/svg" xmlns:xlink="http://www.w3.org/1999/xlink" width="375pt" height="374.999991pt" viewBox="0 0 375 374.999991" version="1.2">
<defs>
<clipPath id="clip1">
  <path d="M 0 72.1875 L 241 72.1875 L 241 303.1875 L 0 303.1875 Z M 0 72.1875 "/>
</clipPath>
<clipPath id="clip2">
  <path d="M 0 105 L 57 105 L 57 303.1875 L 0 303.1875 Z M 0 105 "/>
</clipPath>
<clipPath id="clip3">
  <path d="M 134 72.1875 L 375 72.1875 L 375 303.1875 L 134 303.1875 Z M 134 72.1875 "/>
</clipPath>
<clipPath id="clip4">
  <path d="M 318 105 L 375 105 L 375 303.1875 L 318 303.1875 Z M 318 105 "/>
</clipPath>
</defs>
<g id="surface1">
<g clip-path="url(#clip1)" clip-rule="nonzero">
<path style=" stroke:none;fill-rule:nonzero;fill:rgb(14.118958%,21.569824%,26.269531%);fill-opacity:1;" d="M -0.0078125 168.722656 C -0.0078125 115.417969 53.824219 72.203125 120.234375 72.203125 C 186.640625 72.203125 240.476562 115.417969 240.476562 168.722656 C 240.476562 222.035156 186.640625 265.25 120.234375 265.25 C 107.480469 265.25 95.191406 263.648438 83.65625 260.695312 L 41.1875 303.234375 L 50.910156 247.597656 C 20.105469 230.117188 -0.0078125 201.308594 -0.0078125 168.722656 "/>
</g>
<g clip-path="url(#clip2)" clip-rule="nonzero">
<path style=" stroke:none;fill-rule:nonzero;fill:rgb(28.62854%,36.859131%,41.958618%);fill-opacity:1;" d="M 46.417969 297.996094 L 56.140625 242.359375 C 25.335938 224.878906 5.226562 196.070312 5.226562 163.484375 C 5.226562 141.878906 14.066406 121.933594 29.007812 105.847656 C 10.921875 122.738281 -0.0078125 144.707031 -0.0078125 168.722656 C -0.0078125 201.308594 20.105469 230.117188 50.910156 247.597656 L 41.1875 303.234375 L 46.417969 297.996094 "/>
</g>
<path style=" stroke:none;fill-rule:nonzero;fill:rgb(28.62854%,36.859131%,41.958618%);fill-opacity:1;" d="M 125.46875 260.011719 C 112.710938 260.011719 100.421875 258.410156 88.886719 255.453125 L 83.65625 260.695312 C 95.191406 263.648438 107.480469 265.25 120.234375 265.25 C 159.730469 265.25 194.773438 249.964844 216.691406 226.363281 C 194.640625 246.960938 161.953125 260.011719 125.46875 260.011719 "/>
<g clip-path="url(#clip3)" clip-rule="nonzero">
<path style=" stroke:none;fill-rule:nonzero;fill:rgb(91.369629%,91.369629%,91.369629%);fill-opacity:1;" d="M 374.992188 168.722656 C 374.992188 115.417969 321.15625 72.203125 254.75 72.203125 C 188.34375 72.203125 134.507812 115.417969 134.507812 168.722656 C 134.507812 222.035156 188.34375 265.25 254.75 265.25 C 267.507812 265.25 279.796875 263.648438 291.332031 260.695312 L 333.796875 303.234375 L 324.078125 247.597656 C 354.878906 230.117188 374.992188 201.308594 374.992188 168.722656 "/>
</g>
<g clip-path="url(#clip4)" clip-rule="nonzero">
<path style=" stroke:none;fill-rule:nonzero;fill:rgb(80.778503%,80.778503%,80.389404%);fill-opacity:1;" d="M 328.566406 297.996094 L 318.847656 242.359375 C 349.648438 224.878906 369.761719 196.070312 369.761719 163.484375 C 369.761719 141.878906 360.917969 121.933594 345.976562 105.847656 C 364.058594 122.738281 374.992188 144.707031 374.992188 168.722656 C 374.992188 201.308594 354.878906 230.117188 324.078125 247.597656 L 333.796875 303.234375 L 328.566406 297.996094 "/>
</g>
<path style=" stroke:none;fill-rule:nonzero;fill:rgb(80.778503%,80.778503%,80.389404%);fill-opacity:1;" d="M 249.519531 260.011719 C 262.273438 260.011719 274.5625 258.410156 286.097656 255.453125 L 291.332031 260.695312 C 279.796875 263.648438 267.507812 265.25 254.75 265.25 C 215.257812 265.25 180.214844 249.964844 158.292969 226.363281 C 180.34375 246.960938 213.03125 260.011719 249.519531 260.011719 "/>
<path style=" stroke:none;fill-rule:nonzero;fill:rgb(63.139343%,63.139343%,63.139343%);fill-opacity:1;" d="M 222.566406 196.265625 C 222.566406 200.597656 226.074219 204.109375 230.402344 204.109375 C 234.726562 204.109375 238.234375 200.597656 238.234375 196.265625 C 238.234375 191.929688 234.726562 188.417969 230.402344 188.417969 C 226.074219 188.417969 222.566406 191.929688 222.566406 196.265625 "/>
<path style=" stroke:none;fill-rule:nonzero;fill:rgb(63.139343%,63.139343%,63.139343%);fill-opacity:1;" d="M 244.988281 196.265625 C 244.988281 200.597656 248.496094 204.109375 252.820312 204.109375 C 257.148438 204.109375 260.65625 200.597656 260.65625 196.265625 C 260.65625 191.929688 257.148438 188.417969 252.820312 188.417969 C 248.496094 188.417969 244.988281 191.929688 244.988281 196.265625 "/>
<path style=" stroke:none;fill-rule:nonzero;fill:rgb(63.139343%,63.139343%,63.139343%);fill-opacity:1;" d="M 267.40625 196.265625 C 267.40625 200.597656 270.914062 204.109375 275.242188 204.109375 C 279.566406 204.109375 283.070312 200.597656 283.070312 196.265625 C 283.070312 191.929688 279.566406 188.417969 275.242188 188.417969 C 270.914062 188.417969 267.40625 191.929688 267.40625 196.265625 "/>
</g>
</svg>
